# xmcd CD database file generated by OrangeCD 5.2
#
# Track frame offsets:
#	150
#	14400
#	31419
#	46804
#	69470
#	92061
#	111596
#	132369
#	146125
#	162907
#	186216
#	211644
#
# Disc length: 3071 seconds
#
# Revision: 4
# Processed by: cddbd v1.5.1PL0 Copyright (c) Steve Scherf et al.
# Submitted via: OrangeCD 5.2
#
DISCID=a90bfd0c
DTITLE=Reidar Larsen - This One's On Me
DYEAR=2001
DGENRE=Blues
TTITLE0=No More Bullshit
TTITLE1=This One's On Me
TTITLE2=Merry-Go-Round
TTITLE3=I Wonder
TTITLE4=Just Passing Through
TTITLE5=Heads She Will
TTITLE6=Sail Away
TTITLE7=He's Got A Way With Women
TTITLE8=Night Train To The Past
TTITLE9=Going To Milwaukee
TTITLE10=Given Up On Love
TTITLE11=What've You Got To Say
EXTD=
EXTT0=
EXTT1=
EXTT2=
EXTT3=
EXTT4=
EXTT5=
EXTT6=
EXTT7=
EXTT8=
EXTT9=
EXTT10=
EXTT11=
PLAYORDER=
